# xmcd
#
# Track frame offsets:
#	150
#	15140
#	34305
#	51793
#	68494
#	85759
#	99852
#	118316
#	136451
#	153434
#
# Disc length: 2325 seconds
#
# Revision: 0
# Processed by: cddbd v1.4PL0 Copyright (c) Steve Scherf et al.
# Submitted via: dBpowerAMP V4.0
#
DISCID=7409130a
DTITLE=Chely Wright - Single White Female
DYEAR=1900
DGENRE=Country
TTITLE0=Single White Female
TTITLE1=She Went Out For Cigarettes
TTITLE2=It Was
TTITLE3=Unknown
TTITLE4=Love That We Lost
TTITLE5=Fire
TTITLE6=Picket Fences
TTITLE7=Some Kind Of Somethin'
TTITLE8=Runnin' It In
TTITLE9=Why Do I Still Want You
EXTD=
EXTT0=
EXTT1=
EXTT2=
EXTT3=
EXTT4=
EXTT5=
EXTT6=
EXTT7=
EXTT8=
EXTT9=
PLAYORDER=
